<mxfile host="app.diagrams.net" modified="2023-07-23T09:58:16.747Z" agent="Mozilla/5.0 (Windows NT 10.0; Win64; x64) AppleWebKit/537.36 (KHTML, like Gecko) Chrome/115.0.0.0 Safari/537.36" etag="_3Oz4uBYLDZWyIVly78M" version="21.6.3" type="device">
  <diagram name="‫עמוד-1‬" id="48SdUzLO-2fZvXN12JiL">
    <mxGraphModel dx="1434" dy="758" grid="1" gridSize="10" guides="1" tooltips="1" connect="1" arrows="1" fold="1" page="1" pageScale="1" pageWidth="827" pageHeight="1169" math="0" shadow="0">
      <root>
        <mxCell id="0" />
        <mxCell id="1" parent="0" />
        <mxCell id="rD60_sKmB55HCb-rnD7D-3" value="" style="edgeStyle=orthogonalEdgeStyle;rounded=0;orthogonalLoop=1;jettySize=auto;html=1;" edge="1" parent="1" source="rD60_sKmB55HCb-rnD7D-1" target="rD60_sKmB55HCb-rnD7D-2">
          <mxGeometry relative="1" as="geometry" />
        </mxCell>
        <mxCell id="rD60_sKmB55HCb-rnD7D-1" value="Start" style="rounded=1;whiteSpace=wrap;html=1;" vertex="1" parent="1">
          <mxGeometry x="200" y="80" width="120" height="60" as="geometry" />
        </mxCell>
        <mxCell id="rD60_sKmB55HCb-rnD7D-5" value="" style="edgeStyle=orthogonalEdgeStyle;rounded=0;orthogonalLoop=1;jettySize=auto;html=1;" edge="1" parent="1" source="rD60_sKmB55HCb-rnD7D-2" target="rD60_sKmB55HCb-rnD7D-4">
          <mxGeometry relative="1" as="geometry" />
        </mxCell>
        <mxCell id="rD60_sKmB55HCb-rnD7D-2" value="&quot;chavi&quot;" style="shape=document;whiteSpace=wrap;html=1;boundedLbl=1;rounded=1;" vertex="1" parent="1">
          <mxGeometry x="200" y="210" width="120" height="80" as="geometry" />
        </mxCell>
        <mxCell id="rD60_sKmB55HCb-rnD7D-4" value="End" style="whiteSpace=wrap;html=1;rounded=1;" vertex="1" parent="1">
          <mxGeometry x="200" y="360" width="120" height="60" as="geometry" />
        </mxCell>
        <mxCell id="rD60_sKmB55HCb-rnD7D-11" value="" style="edgeStyle=orthogonalEdgeStyle;rounded=0;orthogonalLoop=1;jettySize=auto;html=1;" edge="1" parent="1" source="rD60_sKmB55HCb-rnD7D-9" target="rD60_sKmB55HCb-rnD7D-10">
          <mxGeometry relative="1" as="geometry" />
        </mxCell>
        <mxCell id="rD60_sKmB55HCb-rnD7D-9" value="Start" style="rounded=1;whiteSpace=wrap;html=1;" vertex="1" parent="1">
          <mxGeometry x="600" y="70" width="150" height="60" as="geometry" />
        </mxCell>
        <mxCell id="rD60_sKmB55HCb-rnD7D-21" value="" style="edgeStyle=orthogonalEdgeStyle;rounded=0;orthogonalLoop=1;jettySize=auto;html=1;" edge="1" parent="1" source="rD60_sKmB55HCb-rnD7D-10" target="rD60_sKmB55HCb-rnD7D-20">
          <mxGeometry relative="1" as="geometry" />
        </mxCell>
        <mxCell id="rD60_sKmB55HCb-rnD7D-10" value="seconds1" style="rounded=1;whiteSpace=wrap;html=1;" vertex="1" parent="1">
          <mxGeometry x="600" y="210" width="150" height="60" as="geometry" />
        </mxCell>
        <mxCell id="rD60_sKmB55HCb-rnD7D-25" value="" style="edgeStyle=orthogonalEdgeStyle;rounded=0;orthogonalLoop=1;jettySize=auto;html=1;" edge="1" parent="1" source="rD60_sKmB55HCb-rnD7D-16" target="rD60_sKmB55HCb-rnD7D-24">
          <mxGeometry relative="1" as="geometry" />
        </mxCell>
        <mxCell id="rD60_sKmB55HCb-rnD7D-16" value="multiply=seconds1*60*60" style="shape=document;whiteSpace=wrap;html=1;boundedLbl=1;rounded=1;" vertex="1" parent="1">
          <mxGeometry x="600" y="460" width="150" height="80" as="geometry" />
        </mxCell>
        <mxCell id="rD60_sKmB55HCb-rnD7D-23" value="" style="edgeStyle=orthogonalEdgeStyle;rounded=0;orthogonalLoop=1;jettySize=auto;html=1;" edge="1" parent="1" source="rD60_sKmB55HCb-rnD7D-20" target="rD60_sKmB55HCb-rnD7D-16">
          <mxGeometry relative="1" as="geometry" />
        </mxCell>
        <mxCell id="rD60_sKmB55HCb-rnD7D-20" value="multiply=seconds1*60*60" style="whiteSpace=wrap;html=1;rounded=1;" vertex="1" parent="1">
          <mxGeometry x="600" y="350" width="150" height="60" as="geometry" />
        </mxCell>
        <mxCell id="rD60_sKmB55HCb-rnD7D-24" value="End" style="whiteSpace=wrap;html=1;rounded=1;" vertex="1" parent="1">
          <mxGeometry x="600" y="600" width="150" height="60" as="geometry" />
        </mxCell>
      </root>
    </mxGraphModel>
  </diagram>
</mxfile>
